<mxfile host="Electron" modified="2023-11-14T07:15:07.445Z" agent="Mozilla/5.0 (Windows NT 10.0; Win64; x64) AppleWebKit/537.36 (KHTML, like Gecko) draw.io/22.0.3 Chrome/114.0.5735.289 Electron/25.8.4 Safari/537.36" etag="B7h7pbzvd-WBg-x3YOXC" version="22.0.3" type="device">
  <diagram id="C5RBs43oDa-KdzZeNtuy" name="Page-1">
    <mxGraphModel dx="1036" dy="606" grid="1" gridSize="10" guides="1" tooltips="1" connect="1" arrows="1" fold="1" page="1" pageScale="1" pageWidth="827" pageHeight="1169" math="0" shadow="0">
      <root>
        <mxCell id="WIyWlLk6GJQsqaUBKTNV-0" />
        <mxCell id="WIyWlLk6GJQsqaUBKTNV-1" parent="WIyWlLk6GJQsqaUBKTNV-0" />
        <mxCell id="EwR33PQQKdI6P-ojKcUo-2" style="edgeStyle=orthogonalEdgeStyle;rounded=0;orthogonalLoop=1;jettySize=auto;html=1;exitX=0.5;exitY=1;exitDx=0;exitDy=0;entryX=0.5;entryY=0;entryDx=0;entryDy=0;" edge="1" parent="WIyWlLk6GJQsqaUBKTNV-1" source="EwR33PQQKdI6P-ojKcUo-0" target="EwR33PQQKdI6P-ojKcUo-1">
          <mxGeometry relative="1" as="geometry" />
        </mxCell>
        <mxCell id="EwR33PQQKdI6P-ojKcUo-0" value="start" style="ellipse;whiteSpace=wrap;html=1;" vertex="1" parent="WIyWlLk6GJQsqaUBKTNV-1">
          <mxGeometry x="354" y="10" width="120" height="80" as="geometry" />
        </mxCell>
        <mxCell id="EwR33PQQKdI6P-ojKcUo-37" style="edgeStyle=orthogonalEdgeStyle;rounded=0;orthogonalLoop=1;jettySize=auto;html=1;exitX=0.5;exitY=1;exitDx=0;exitDy=0;" edge="1" parent="WIyWlLk6GJQsqaUBKTNV-1" source="EwR33PQQKdI6P-ojKcUo-1" target="EwR33PQQKdI6P-ojKcUo-3">
          <mxGeometry relative="1" as="geometry" />
        </mxCell>
        <mxCell id="EwR33PQQKdI6P-ojKcUo-1" value="count=100,num1,num2&lt;br&gt;num3" style="rounded=0;whiteSpace=wrap;html=1;" vertex="1" parent="WIyWlLk6GJQsqaUBKTNV-1">
          <mxGeometry x="354" y="120" width="120" height="60" as="geometry" />
        </mxCell>
        <mxCell id="EwR33PQQKdI6P-ojKcUo-30" style="edgeStyle=orthogonalEdgeStyle;rounded=0;orthogonalLoop=1;jettySize=auto;html=1;exitX=0;exitY=0.5;exitDx=0;exitDy=0;" edge="1" parent="WIyWlLk6GJQsqaUBKTNV-1" source="EwR33PQQKdI6P-ojKcUo-3" target="EwR33PQQKdI6P-ojKcUo-7">
          <mxGeometry relative="1" as="geometry" />
        </mxCell>
        <mxCell id="EwR33PQQKdI6P-ojKcUo-33" style="edgeStyle=orthogonalEdgeStyle;rounded=0;orthogonalLoop=1;jettySize=auto;html=1;exitX=0.5;exitY=1;exitDx=0;exitDy=0;entryX=0.5;entryY=0;entryDx=0;entryDy=0;" edge="1" parent="WIyWlLk6GJQsqaUBKTNV-1" source="EwR33PQQKdI6P-ojKcUo-3" target="EwR33PQQKdI6P-ojKcUo-11">
          <mxGeometry relative="1" as="geometry" />
        </mxCell>
        <mxCell id="EwR33PQQKdI6P-ojKcUo-3" value="count&amp;lt;999?" style="rhombus;whiteSpace=wrap;html=1;" vertex="1" parent="WIyWlLk6GJQsqaUBKTNV-1">
          <mxGeometry x="374" y="300" width="80" height="80" as="geometry" />
        </mxCell>
        <mxCell id="EwR33PQQKdI6P-ojKcUo-7" value="end" style="ellipse;whiteSpace=wrap;html=1;" vertex="1" parent="WIyWlLk6GJQsqaUBKTNV-1">
          <mxGeometry x="100" y="300" width="120" height="80" as="geometry" />
        </mxCell>
        <mxCell id="EwR33PQQKdI6P-ojKcUo-35" style="edgeStyle=orthogonalEdgeStyle;rounded=0;orthogonalLoop=1;jettySize=auto;html=1;exitX=0.5;exitY=1;exitDx=0;exitDy=0;entryX=0.5;entryY=0;entryDx=0;entryDy=0;" edge="1" parent="WIyWlLk6GJQsqaUBKTNV-1" source="EwR33PQQKdI6P-ojKcUo-11" target="EwR33PQQKdI6P-ojKcUo-12">
          <mxGeometry relative="1" as="geometry" />
        </mxCell>
        <mxCell id="EwR33PQQKdI6P-ojKcUo-11" value="num1= count/100&lt;br&gt;num2=(count/10)%10&lt;br&gt;num3=count%10" style="rounded=0;whiteSpace=wrap;html=1;" vertex="1" parent="WIyWlLk6GJQsqaUBKTNV-1">
          <mxGeometry x="354" y="390" width="120" height="60" as="geometry" />
        </mxCell>
        <mxCell id="EwR33PQQKdI6P-ojKcUo-32" style="edgeStyle=orthogonalEdgeStyle;rounded=0;orthogonalLoop=1;jettySize=auto;html=1;exitX=1;exitY=0.5;exitDx=0;exitDy=0;entryX=0;entryY=0.75;entryDx=0;entryDy=0;" edge="1" parent="WIyWlLk6GJQsqaUBKTNV-1" source="EwR33PQQKdI6P-ojKcUo-12" target="EwR33PQQKdI6P-ojKcUo-19">
          <mxGeometry relative="1" as="geometry" />
        </mxCell>
        <mxCell id="EwR33PQQKdI6P-ojKcUo-36" style="edgeStyle=orthogonalEdgeStyle;rounded=0;orthogonalLoop=1;jettySize=auto;html=1;exitX=0.5;exitY=1;exitDx=0;exitDy=0;entryX=0.5;entryY=0;entryDx=0;entryDy=0;" edge="1" parent="WIyWlLk6GJQsqaUBKTNV-1" source="EwR33PQQKdI6P-ojKcUo-12" target="EwR33PQQKdI6P-ojKcUo-22">
          <mxGeometry relative="1" as="geometry" />
        </mxCell>
        <mxCell id="EwR33PQQKdI6P-ojKcUo-12" value="(num1)^3 + (num2)^3+&lt;br&gt;(num3)^3 == count?" style="rhombus;whiteSpace=wrap;html=1;" vertex="1" parent="WIyWlLk6GJQsqaUBKTNV-1">
          <mxGeometry x="264" y="470" width="306" height="80" as="geometry" />
        </mxCell>
        <mxCell id="EwR33PQQKdI6P-ojKcUo-19" value="so Amstrong" style="shape=parallelogram;perimeter=parallelogramPerimeter;whiteSpace=wrap;html=1;fixedSize=1;" vertex="1" parent="WIyWlLk6GJQsqaUBKTNV-1">
          <mxGeometry x="640" y="466" width="120" height="60" as="geometry" />
        </mxCell>
        <mxCell id="EwR33PQQKdI6P-ojKcUo-26" style="edgeStyle=orthogonalEdgeStyle;rounded=0;orthogonalLoop=1;jettySize=auto;html=1;exitX=1;exitY=0.5;exitDx=0;exitDy=0;entryX=1.017;entryY=0.39;entryDx=0;entryDy=0;entryPerimeter=0;" edge="1" parent="WIyWlLk6GJQsqaUBKTNV-1" source="EwR33PQQKdI6P-ojKcUo-22" target="EwR33PQQKdI6P-ojKcUo-27">
          <mxGeometry relative="1" as="geometry">
            <mxPoint x="750" y="320" as="targetPoint" />
            <Array as="points">
              <mxPoint x="464" y="610" />
              <mxPoint x="790" y="610" />
              <mxPoint x="790" y="270" />
              <mxPoint x="750" y="270" />
              <mxPoint x="750" y="273" />
            </Array>
          </mxGeometry>
        </mxCell>
        <mxCell id="EwR33PQQKdI6P-ojKcUo-22" value="count" style="shape=parallelogram;perimeter=parallelogramPerimeter;whiteSpace=wrap;html=1;fixedSize=1;" vertex="1" parent="WIyWlLk6GJQsqaUBKTNV-1">
          <mxGeometry x="354" y="585" width="120" height="60" as="geometry" />
        </mxCell>
        <mxCell id="EwR33PQQKdI6P-ojKcUo-29" style="edgeStyle=orthogonalEdgeStyle;rounded=0;orthogonalLoop=1;jettySize=auto;html=1;exitX=0;exitY=0.5;exitDx=0;exitDy=0;" edge="1" parent="WIyWlLk6GJQsqaUBKTNV-1" source="EwR33PQQKdI6P-ojKcUo-27">
          <mxGeometry relative="1" as="geometry">
            <mxPoint x="410" y="280" as="targetPoint" />
          </mxGeometry>
        </mxCell>
        <mxCell id="EwR33PQQKdI6P-ojKcUo-27" value="tăng count lên 1" style="rounded=0;whiteSpace=wrap;html=1;" vertex="1" parent="WIyWlLk6GJQsqaUBKTNV-1">
          <mxGeometry x="620" y="250" width="120" height="60" as="geometry" />
        </mxCell>
        <mxCell id="EwR33PQQKdI6P-ojKcUo-31" value="false" style="text;html=1;align=center;verticalAlign=middle;resizable=0;points=[];autosize=1;strokeColor=none;fillColor=none;" vertex="1" parent="WIyWlLk6GJQsqaUBKTNV-1">
          <mxGeometry x="270" y="300" width="50" height="30" as="geometry" />
        </mxCell>
      </root>
    </mxGraphModel>
  </diagram>
</mxfile>
